<svg width="42" height="41" viewBox="0 0 42 41" fill="none" xmlns="http://www.w3.org/2000/svg">
<path d="M20.898 40.8241C9.66748 40.8241 0.600586 31.7573 0.600586 20.5267C0.600586 9.29613 9.66748 0.229248 20.898 0.229248C32.1286 0.229248 41.1955 9.29613 41.1955 20.5267C41.1955 31.7573 32.0256 40.8241 20.898 40.8241ZM20.898 2.9081C11.213 2.9081 3.27944 10.8416 3.27944 20.5267C3.27944 30.2118 11.213 38.1453 20.898 38.1453C30.5831 38.1453 38.5166 30.2118 38.5166 20.5267C38.5166 10.8416 30.5831 2.9081 20.898 2.9081Z" fill="url(#paint0_linear_1_123)"/>
<path d="M29.7565 25.366C29.7565 24.0266 29.4474 22.8933 28.7262 22.172C28.0049 21.3478 27.1807 20.7296 26.2534 20.3175C25.3261 19.9053 24.0897 19.5962 22.7503 19.1841V12.59C23.7806 12.693 24.8109 13.0021 25.7382 13.3112C26.6655 13.6203 27.6958 13.2082 28.0049 12.3839C28.211 11.9718 28.211 11.4566 28.0049 10.9415C27.7989 10.5293 27.4898 10.2202 27.0776 10.0142C25.8413 9.49901 24.2958 9.18992 22.6472 8.98385V7.02623C22.6472 5.99591 21.823 5.0686 20.7926 5.0686C19.7623 5.0686 18.835 5.89287 18.835 7.02623V9.08689C16.5683 9.39599 14.8167 10.1172 13.6834 11.3536C12.447 12.59 11.8288 14.0325 11.8288 15.784C11.8288 17.1234 12.1379 18.2568 12.8591 19.0811C13.5804 19.9053 14.4046 20.5235 15.4349 20.9357C16.3622 21.3478 17.5986 21.7599 18.938 22.069V28.5601C17.8047 28.457 16.6713 28.1479 15.641 27.7358C15.2289 27.6328 14.9198 27.4267 14.5076 27.2206C14.3016 27.1176 14.0955 27.1176 13.7864 27.1176C13.5803 27.1176 13.3743 27.1176 13.1682 27.2206C12.7561 27.4267 12.344 27.7358 12.1379 28.1479C11.7258 29.0752 12.1379 30.1056 13.0652 30.5177C13.5803 30.7238 14.0955 30.9298 14.7137 31.1359C16.0531 31.548 17.4956 31.8571 18.938 31.9602V33.9178C18.938 34.9481 19.7623 35.7724 20.8957 35.7724C21.926 35.7724 22.7503 34.9481 22.7503 33.9178V31.8571C25.017 31.548 26.7685 30.8268 27.9019 29.5904C29.2413 28.457 29.7565 27.0146 29.7565 25.366ZM17.0835 17.2265C16.5683 16.8143 16.2592 16.1961 16.2592 15.5779C16.2592 14.8567 16.4653 14.2385 16.9804 13.7234C17.3926 13.2082 18.0108 12.8991 18.835 12.693V18.1538C18.2168 17.8447 17.5986 17.5356 17.0835 17.2265ZM24.6049 27.4267C24.1927 27.8388 23.5745 28.1479 22.7503 28.354V22.9963C23.5745 23.3054 24.1927 23.6145 24.6049 24.0266C25.12 24.4388 25.3261 25.057 25.3261 25.6751C25.3261 26.3964 25.12 27.0146 24.6049 27.4267Z" fill="url(#paint1_linear_1_123)"/>
<defs>
<linearGradient id="paint0_linear_1_123" x1="5.44199" y1="5.13021" x2="34.8514" y2="34.5396" gradientUnits="userSpaceOnUse">
<stop stop-color="#F9DD68"/>
<stop offset="1" stop-color="#F9A942"/>
</linearGradient>
<linearGradient id="paint1_linear_1_123" x1="5.19854" y1="5.36822" x2="34.6077" y2="34.7775" gradientUnits="userSpaceOnUse">
<stop stop-color="#F9DD68"/>
<stop offset="1" stop-color="#F9A942"/>
</linearGradient>
</defs>
</svg>
