<svg width="575" height="432" viewBox="0 0 575 432" fill="none" xmlns="http://www.w3.org/2000/svg">
<ellipse rx="0.5" ry="1" transform="matrix(-1 0 0 1 574.5 242)" fill="white"/>
<circle r="1.5" transform="matrix(-1 0 0 1 195.5 1.5)" fill="white"/>
<ellipse rx="1.5" ry="1" transform="matrix(-1 0 0 1 45.5 320)" fill="white"/>
<circle r="1.5" transform="matrix(-1 0 0 1 421.5 387.5)" fill="white"/>
<circle r="1.5" transform="matrix(-1 0 0 1 318.5 58.5)" fill="white"/>
<circle r="1" transform="matrix(-1 0 0 1 75 159)" fill="white"/>
<circle r="0.5" transform="matrix(-1 0 0 1 266.5 124.5)" fill="white"/>
<ellipse cx="274.5" cy="295" rx="0.5" ry="1" fill="#0F172A"/>
<ellipse cx="569" cy="4.5" rx="1" ry="0.5" fill="#0F172A"/>
<circle cx="396" cy="337" r="1" fill="#0F172A"/>
<ellipse cx="275.5" cy="332" rx="1.5" ry="2" fill="#0F172A"/>
<ellipse rx="1" ry="1.5" transform="matrix(-1 0 0 1 310 272.5)" fill="white"/>
<circle cx="393" cy="242" r="1" fill="#0F172A"/>
<circle cx="464" cy="86" r="2" fill="#0F172A"/>
<rect x="405.855" y="148.76" width="0.912247" height="0.912247" rx="0.265094" transform="rotate(-24.4476 405.855 148.76)" fill="white"/>
<rect x="225.543" y="330.881" width="1.82996" height="1.82996" rx="0.531777" transform="rotate(-24.4476 225.543 330.881)" fill="white"/>
<rect x="549.383" y="429.783" width="1.82996" height="1.82996" rx="0.531777" transform="rotate(-24.4476 549.383 429.783)" fill="white"/>
<rect y="35.9883" width="1.82996" height="1.82996" rx="0.531777" transform="rotate(-24.4476 0 35.9883)" fill="white"/>
<rect x="336.816" y="316.211" width="1.88965" height="1.88965" rx="0.619105" transform="rotate(30.4542 336.816 316.211)" fill="#0F172A"/>
<rect x="532.498" y="382.77" width="1.88965" height="1.88965" rx="0.619105" transform="rotate(-24.4476 532.498 382.77)" fill="#0F172A"/>
<rect x="550.588" y="121.646" width="1.88965" height="1.88965" rx="0.619105" transform="rotate(-24.4476 550.588 121.646)" fill="#0F172A"/>
<path d="M535.406 166.026C535.786 165.855 536.208 166.158 536.166 166.572L536.13 166.935C536.089 167.349 535.614 167.563 535.277 167.32L534.98 167.107C534.643 166.864 534.694 166.347 535.074 166.176L535.406 166.026Z" fill="white"/>
<path d="M320.094 228.976C320.224 229.219 320.183 229.518 319.992 229.716L319.366 230.368C319.176 230.567 318.879 230.62 318.631 230.5L317.818 230.106C317.57 229.986 317.428 229.721 317.465 229.448L317.588 228.553C317.626 228.28 317.835 228.062 318.106 228.014L318.995 227.854C319.266 227.806 319.537 227.937 319.667 228.18L320.094 228.976Z" fill="white"/>
<path d="M505.562 3.57547C505.837 3.57412 506.082 3.75009 506.168 4.01134L506.452 4.8696C506.538 5.13085 506.446 5.41797 506.224 5.58078L505.496 6.11564C505.274 6.27846 504.973 6.27993 504.749 6.1193L504.015 5.59161C503.792 5.43098 503.697 5.14478 503.781 4.88269L504.056 4.02169C504.14 3.75961 504.383 3.58125 504.658 3.5799L505.562 3.57547Z" fill="white"/>
<path d="M462.739 223.017C462.828 223.12 462.84 223.269 462.769 223.386L462.537 223.769C462.466 223.886 462.328 223.943 462.195 223.912L461.759 223.809C461.626 223.778 461.528 223.665 461.517 223.529L461.48 223.082C461.469 222.946 461.546 222.818 461.672 222.765L462.085 222.592C462.211 222.539 462.357 222.574 462.446 222.677L462.739 223.017Z" fill="white"/>
<path d="M393.997 69.9114C394.273 69.9101 394.517 70.086 394.604 70.3473L394.887 71.2055C394.973 71.4668 394.882 71.7539 394.66 71.9167L393.931 72.4516C393.709 72.6144 393.408 72.6159 393.185 72.4552L392.451 71.9275C392.227 71.7669 392.133 71.4807 392.217 71.2186L392.492 70.3576C392.575 70.0955 392.818 69.9172 393.094 69.9158L393.997 69.9114Z" fill="white"/>
<path d="M491.486 271.772C491.594 271.939 491.582 272.157 491.456 272.311L491.043 272.817C490.917 272.971 490.706 273.026 490.521 272.954L489.912 272.717C489.727 272.645 489.609 272.462 489.62 272.264L489.657 271.611C489.669 271.413 489.806 271.244 489.999 271.194L490.63 271.027C490.823 270.977 491.026 271.056 491.133 271.223L491.486 271.772Z" fill="white"/>
<path d="M501.341 332.843C501.616 332.842 501.861 333.018 501.947 333.279L502.231 334.137C502.317 334.398 502.225 334.686 502.004 334.848L501.275 335.383C501.053 335.546 500.752 335.548 500.528 335.387L499.795 334.859C499.571 334.699 499.477 334.412 499.56 334.15L499.835 333.289C499.919 333.027 500.162 332.849 500.437 332.847L501.341 332.843Z" fill="white"/>
<path d="M359.624 394.355C359.9 394.353 360.144 394.529 360.231 394.791L360.514 395.649C360.6 395.91 360.509 396.197 360.287 396.36L359.558 396.895C359.336 397.058 359.035 397.059 358.812 396.899L358.078 396.371C357.854 396.21 357.76 395.924 357.844 395.662L358.119 394.801C358.202 394.539 358.445 394.361 358.721 394.359L359.624 394.355Z" fill="white"/>
<path d="M216.425 225.114C216.639 225.112 216.83 225.25 216.898 225.453L217.119 226.123C217.186 226.326 217.114 226.55 216.941 226.677L216.373 227.094C216.2 227.221 215.965 227.223 215.791 227.097L215.219 226.686C215.044 226.561 214.971 226.337 215.036 226.133L215.251 225.462C215.316 225.257 215.505 225.118 215.72 225.117L216.425 225.114Z" fill="#0F172A"/>
<path d="M230.01 274.492C230.277 274.372 230.574 274.585 230.545 274.877L230.445 275.877C230.416 276.169 230.082 276.32 229.844 276.149L229.028 275.562C228.79 275.39 228.826 275.026 229.093 274.905L230.01 274.492Z" fill="#0F172A"/>
</svg>
