<svg width="1825" height="410" viewBox="0 0 1825 410" fill="none" xmlns="http://www.w3.org/2000/svg">
<line opacity="0.1" y1="-20" x2="368.348" y2="-20" transform="matrix(0.966335 -0.257287 0.935357 0.353704 46.5762 82.9583)" stroke="#0A0B2E" stroke-width="40"/>
<line opacity="0.1" y1="-25" x2="1218.78" y2="-25" transform="matrix(0.966335 -0.257287 0.935357 0.353704 43.0859 281.479)" stroke="#0A0B2E" stroke-width="50"/>
<line opacity="0.1" y1="-25" x2="710.845" y2="-25" transform="matrix(0.966335 -0.257287 0.935358 0.353704 1110.81 395.36)" stroke="#0A0B2E" stroke-width="50"/>
<line opacity="0.1" y1="-15" x2="1563.41" y2="-15" transform="matrix(0.966335 -0.257287 0.935358 0.353704 282.729 394.754)" stroke="#0A0B2E" stroke-width="30"/>
<line opacity="0.1" y1="-30" x2="697.854" y2="-30" transform="matrix(0.966335 -0.257287 0.935357 0.353704 0 169.987)" stroke="#0A0B2E" stroke-width="60"/>
<line opacity="0.1" y1="-30" x2="993.185" y2="-30" transform="matrix(0.966335 -0.257287 0.935357 0.353704 0.0791016 233.762)" stroke="#0A0B2E" stroke-width="60"/>
<line opacity="0.1" y1="-50" x2="993.185" y2="-50" transform="matrix(0.966335 -0.257287 0.935357 0.353704 863.757 396.788)" stroke="#0A0B2E" stroke-width="100"/>
<line opacity="0.1" y1="-50" x2="1214.36" y2="-50" transform="matrix(0.966335 -0.257287 0.935357 0.353704 626.324 401.636)" stroke="#0A0B2E" stroke-width="100"/>
<line opacity="0.1" y1="-15" x2="850.964" y2="-15" transform="matrix(0.966335 -0.257287 0.935357 0.353704 0.0791016 203.441)" stroke="#0A0B2E" stroke-width="30"/>
<line opacity="0.1" y1="-5" x2="502.866" y2="-5" transform="matrix(0.966335 -0.257287 0.935357 0.353704 33.7656 106.73)" stroke="#0A0B2E" stroke-width="10"/>
<line opacity="0.1" y1="-35" x2="255.477" y2="-35" transform="matrix(0.966335 -0.257287 0.935357 0.353704 14.9668 46.5029)" stroke="#0A0B2E" stroke-width="70"/>
<line opacity="0.1" y1="-45" x2="1525.33" y2="-45" transform="matrix(0.966335 -0.257287 0.935357 0.353704 25.0576 379.343)" stroke="#0A0B2E" stroke-width="90"/>
<line opacity="0.1" y1="-15" x2="1121.69" y2="-15" transform="matrix(0.966335 -0.257287 0.935357 0.353704 31.4639 256.497)" stroke="#0A0B2E" stroke-width="30"/>
<line opacity="0.1" y1="-15" x2="735.439" y2="-15" transform="matrix(0.966335 -0.257287 0.935357 0.353704 1063.48 389.672)" stroke="#0A0B2E" stroke-width="30"/>
<line opacity="0.1" y1="-24" x2="1583.81" y2="-24" transform="matrix(0.966335 -0.257287 0.935357 0.353704 142.491 392.696)" stroke="#0A0B2E" stroke-width="48"/>
<line opacity="0.1" y1="-10" x2="552.416" y2="-10" transform="matrix(0.966335 -0.257287 0.935357 0.353704 21.6943 124.721)" stroke="#0A0B2E" stroke-width="20"/>
<line opacity="0.1" y1="-10" x2="1397.67" y2="-10" transform="matrix(0.966335 -0.257287 0.935357 0.353704 15.1904 322.707)" stroke="#0A0B2E" stroke-width="20"/>
<line opacity="0.1" y1="-10" x2="656.349" y2="-10" transform="matrix(0.966335 -0.257287 0.935357 0.353704 1163.88 402.182)" stroke="#0A0B2E" stroke-width="20"/>
<line opacity="0.1" y1="-10" x2="123.19" y2="-10" transform="matrix(0.966335 -0.257287 0.935357 0.353704 1628.39 379.515)" stroke="#0A0B2E" stroke-width="20"/>
<line opacity="0.1" y1="-50.5" x2="1469.18" y2="-50.5" transform="matrix(0.966335 -0.257287 0.935357 0.353704 402.077 399.967)" stroke="#0A0B2E" stroke-width="101"/>
<line opacity="0.1" y1="-55" x2="430.398" y2="-55" transform="matrix(0.966335 -0.257287 0.935357 0.353704 1409.05 410)" stroke="#0A0B2E" stroke-width="110"/>
<line opacity="0.1" x1="17" y1="-17" x2="169.662" y2="-17" transform="matrix(0.966335 -0.257287 0.935357 0.353704 467.373 207.356)" stroke="#4CC082" stroke-width="34" stroke-linecap="round"/>
<line opacity="0.1" x1="10" y1="-10" x2="365.827" y2="-10" transform="matrix(0.966335 -0.257287 0.935357 0.353704 833.533 374.424)" stroke="#4CC082" stroke-width="20" stroke-linecap="round"/>
<line opacity="0.1" x1="11" y1="-11" x2="175.662" y2="-11" transform="matrix(0.966335 -0.257287 0.935357 0.353704 783.55 145.758)" stroke="#6F8EFF" stroke-width="22" stroke-linecap="round"/>
<line opacity="0.1" x1="15" y1="-15" x2="87.0727" y2="-15" transform="matrix(0.966335 -0.257287 0.935357 0.353704 227.911 213.623)" stroke="#6F8EFF" stroke-width="30" stroke-linecap="round"/>
<line opacity="0.1" x1="9.5" y1="-9.5" x2="196.412" y2="-9.5" transform="matrix(0.966335 -0.257287 0.935357 0.353704 124.937 172.21)" stroke="#6F8EFF" stroke-width="19" stroke-linecap="round"/>
<line opacity="0.1" x1="5" y1="-5" x2="100.708" y2="-5" transform="matrix(0.966335 -0.257287 0.935357 0.353704 1614.28 374.5)" stroke="#8D55E9" stroke-width="10" stroke-linecap="round"/>
<line opacity="0.1" x1="16" y1="-16" x2="82.2931" y2="-16" transform="matrix(0.966335 -0.257287 0.935358 0.353704 507.642 32.3675)" stroke="#8D55E9" stroke-width="32" stroke-linecap="round"/>
<line opacity="0.1" x1="6" y1="-6" x2="284.508" y2="-6" transform="matrix(0.966335 -0.257287 0.935357 0.353704 878.284 225.469)" stroke="#EC6C5A" stroke-width="12" stroke-linecap="round"/>
<line opacity="0.1" x1="6" y1="-6" x2="346.351" y2="-6" transform="matrix(0.966335 -0.257287 0.935357 0.353704 46.5762 290.557)" stroke="#EC6C5A" stroke-width="12" stroke-linecap="round"/>
<line opacity="0.1" x1="6" y1="-6" x2="195.603" y2="-6" transform="matrix(0.966335 -0.257287 0.935357 0.353704 472.021 380.128)" stroke="#8D55E9" stroke-width="12" stroke-linecap="round"/>
<line opacity="0.1" x1="13" y1="-13" x2="98.2423" y2="-13" transform="matrix(0.966335 -0.257287 0.935357 0.353704 138.406 94.6335)" stroke="#E350F0" stroke-width="26" stroke-linecap="round"/>
<line opacity="0.1" x1="13" y1="-13" x2="130.782" y2="-13" transform="matrix(0.966335 -0.257287 0.935357 0.353704 1243.56 118.738)" stroke="#EC6C5A" stroke-width="26" stroke-linecap="round"/>
<line opacity="0.1" x1="13" y1="-13" x2="170.121" y2="-13" transform="matrix(0.966335 -0.257287 0.935357 0.353704 77.9609 363.57)" stroke="#4CC082" stroke-width="26" stroke-linecap="round"/>
<line opacity="0.1" x1="1" y1="-1" x2="409.879" y2="-1" transform="matrix(0.966335 -0.257287 0.935357 0.353704 1060.81 360.549)" stroke="#FF5761" stroke-width="2" stroke-linecap="round"/>
<line opacity="0.1" x1="0.5" y1="-0.5" x2="413.24" y2="-0.5" transform="matrix(0.966335 -0.257287 0.935357 0.353704 33.8184 150.689)" stroke="#4CC082" stroke-linecap="round"/>
<line opacity="0.1" x1="0.5" y1="-0.5" x2="353.826" y2="-0.5" transform="matrix(0.966335 -0.257287 0.935358 0.353704 419.711 151.644)" stroke="#4CC082" stroke-linecap="round"/>
<line opacity="0.1" x1="0.5" y1="-0.5" x2="293.373" y2="-0.5" transform="matrix(0.966335 -0.257287 0.935358 0.353704 9.20312 224.059)" stroke="white" stroke-linecap="round"/>
<line opacity="0.1" x1="0.5" y1="-0.5" x2="192.063" y2="-0.5" transform="matrix(0.966335 -0.257287 0.935358 0.353704 123.295 57.2794)" stroke="white" stroke-linecap="round"/>
<line opacity="0.1" x1="2.5" y1="-2.5" x2="296.849" y2="-2.5" transform="matrix(0.966335 -0.257287 0.935357 0.353704 1520.53 99.1401)" stroke="#F4DC5A" stroke-width="5" stroke-linecap="round"/>
<line opacity="0.1" x1="20" y1="-20" x2="113.314" y2="-20" transform="matrix(0.966335 -0.257287 0.935357 0.353704 669.633 221.662)" stroke="#E350F0" stroke-width="40" stroke-linecap="round"/>
<line opacity="0.1" x1="13" y1="-13" x2="204.377" y2="-13" transform="matrix(0.966335 -0.257287 0.935357 0.353704 538.448 327.98)" stroke="#E350F0" stroke-width="26" stroke-linecap="round"/>
<line opacity="0.1" x1="3" y1="-3" x2="405.732" y2="-3" transform="matrix(0.966335 -0.257287 0.935357 0.353704 1219.58 248.059)" stroke="#EC6C5A" stroke-width="6" stroke-linecap="round"/>
<line opacity="0.1" x1="25.5" y1="-25.5" x2="122.336" y2="-25.5" transform="matrix(0.966335 -0.257287 0.935357 0.353704 1568.19 354.861)" stroke="#F4DC5A" stroke-width="51" stroke-linecap="round"/>
<line opacity="0.1" x1="27.5" y1="-27.5" x2="102.977" y2="-27.5" transform="matrix(0.966335 -0.257287 0.935357 0.353704 1547.26 247.119)" stroke="#EC6C5A" stroke-width="55" stroke-linecap="round"/>
<line opacity="0.1" x1="27.5" y1="-27.5" x2="64.4171" y2="-27.5" transform="matrix(0.966335 -0.257287 0.935357 0.353704 424.362 321.293)" stroke="#4CC082" stroke-width="55" stroke-linecap="round"/>
<line opacity="0.1" x1="17.5" y1="-17.5" x2="169.18" y2="-17.5" transform="matrix(0.966335 -0.257287 0.935357 0.353704 718.454 50.2334)" stroke="#F4DC5A" stroke-width="35" stroke-linecap="round"/>
<line opacity="0.1" x1="21.5" y1="-21.5" x2="123.668" y2="-21.5" transform="matrix(0.966335 -0.257287 0.935357 0.353704 887.01 272.292)" stroke="#FF5761" stroke-width="43" stroke-linecap="round"/>
<line opacity="0.1" x1="25" y1="-25" x2="85.3233" y2="-25" transform="matrix(0.966335 -0.257287 0.935357 0.353704 433.66 127.594)" stroke="#6E8EFF" stroke-width="50" stroke-linecap="round"/>
<line opacity="0.1" x1="16" y1="-16" x2="129.799" y2="-16" transform="matrix(0.966335 -0.257286 0.935357 0.353704 884.564 87.6326)" stroke="#6E8EFF" stroke-width="32" stroke-linecap="round"/>
<line opacity="0.1" x1="18" y1="-18" x2="116.086" y2="-18" transform="matrix(0.966335 -0.257287 0.935357 0.353704 1226.44 362.389)" stroke="#8D55E9" stroke-width="36" stroke-linecap="round"/>
<line opacity="0.1" x1="17.5" y1="-17.5" x2="188.023" y2="-17.5" transform="matrix(0.966335 -0.257287 0.935357 0.353704 1174.12 207.045)" stroke="#8D55E9" stroke-width="35" stroke-linecap="round"/>
<line opacity="0.1" x1="10.5" y1="-10.5" x2="199.896" y2="-10.5" transform="matrix(0.966335 -0.257287 0.935357 0.353704 1485.65 68.1389)" stroke="#6E8EFF" stroke-width="21" stroke-linecap="round"/>
<line opacity="0.1" x1="1" y1="-1" x2="426.427" y2="-1" transform="matrix(0.966335 -0.257287 0.935357 0.353704 454.586 71.9716)" stroke="#F4DC5A" stroke-width="2" stroke-linecap="round"/>
<line opacity="0.1" x1="1" y1="-1" x2="442.422" y2="-1" transform="matrix(0.966335 -0.257287 0.935358 0.353704 1365.59 237.029)" stroke="#8D55E9" stroke-width="2" stroke-linecap="round"/>
<line opacity="0.1" x1="2" y1="-2" x2="196.912" y2="-2" transform="matrix(0.966335 -0.257287 0.935357 0.353704 274.607 34.2461)" stroke="#E350F0" stroke-width="4" stroke-linecap="round"/>
<line opacity="0.1" x1="2" y1="-2" x2="476.18" y2="-2" transform="matrix(0.966335 -0.257287 0.935357 0.353704 138.406 319.979)" stroke="white" stroke-width="4" stroke-linecap="round"/>
<line opacity="0.1" x1="3" y1="-3" x2="278.885" y2="-3" transform="matrix(0.966335 -0.257287 0.935357 0.353704 1481 141.12)" stroke="#4CC082" stroke-width="6" stroke-linecap="round"/>
<line opacity="0.1" x1="1" y1="-1" x2="260.494" y2="-1" transform="matrix(0.966335 -0.257287 0.935357 0.353704 1327.57 371.194)" stroke="white" stroke-width="2" stroke-linecap="round"/>
<line opacity="0.1" x1="2.5" y1="-2.5" x2="431.889" y2="-2.5" transform="matrix(0.966335 -0.257287 0.935357 0.353704 1120.01 186.995)" stroke="white" stroke-width="5" stroke-linecap="round"/>
<line opacity="0.1" x1="1.5" y1="-1.5" x2="238.658" y2="-1.5" transform="matrix(0.966335 -0.257287 0.935357 0.353704 805.841 330.586)" stroke="white" stroke-width="3" stroke-linecap="round"/>
<line opacity="0.1" x1="0.5" y1="-0.5" x2="330.354" y2="-0.5" transform="matrix(0.966335 -0.257287 0.935358 0.353704 1208.97 87.463)" stroke="white" stroke-linecap="round"/>
<line opacity="0.1" x1="1" y1="-1" x2="432.742" y2="-1" transform="matrix(0.966335 -0.257287 0.935357 0.353704 762.627 221.869)" stroke="#9E8F4D" stroke-width="2" stroke-linecap="round"/>
<line opacity="0.1" x1="6.5" y1="-6.5" x2="334.8" y2="-6.5" transform="matrix(0.966335 -0.257287 0.935357 0.353704 1062.11 94.5321)" stroke="#F4DC5A" stroke-width="13" stroke-linecap="round"/>
<line opacity="0.1" x1="4" y1="-4" x2="308.488" y2="-4" transform="matrix(0.966335 -0.257287 0.935358 0.353704 1463.7 297.192)" stroke="#FF5761" stroke-width="8" stroke-linecap="round"/>
<line opacity="0.1" x1="4" y1="-4" x2="308.488" y2="-4" transform="matrix(0.966335 -0.257287 0.935358 0.353704 658.008 108.421)" stroke="#FF5761" stroke-width="8" stroke-linecap="round"/>
<line opacity="0.1" x1="4" y1="-4" x2="252.437" y2="-4" transform="matrix(0.966335 -0.257287 0.935358 0.353704 1397.31 337.436)" stroke="#4CC082" stroke-width="8" stroke-linecap="round"/>
<line opacity="0.1" x1="12" y1="-12" x2="121.754" y2="-12" transform="matrix(0.966335 -0.257287 0.935357 0.353704 48.7891 43.8574)" stroke="#F4DC5A" stroke-width="24" stroke-linecap="round"/>
</svg>
