<svg width="567" height="427" viewBox="0 0 567 427" fill="none" xmlns="http://www.w3.org/2000/svg">
<path d="M403 0C98.8867 116.876 -326.872 365.903 403 427V0Z" fill="#0172FF"/>
<path d="M487 40C183.641 153.813 -241.061 338.504 487 398V40Z" fill="#0F172A"/>
<path d="M567 63C263.641 162.507 -161.061 323.983 567 376V63Z" fill="#0172FF"/>
<path d="M503 113C309.062 185.484 37.5482 303.109 503 341V113Z" fill="#0F172A"/>
<circle cx="141.039" cy="206.499" r="15.3779" transform="rotate(18.3001 141.039 206.499)" fill="white"/>
<circle cx="235.5" cy="50.5" r="10.5" fill="white"/>
<path d="M145.868 191.899C137.804 189.232 129.185 193.368 126.439 201.67C125.059 205.845 125.101 208.886 126.847 212.921C127.51 210.917 150.928 194.843 150.928 194.843C150.928 194.843 150.162 193.319 145.868 191.899Z" fill="#0F172A"/>
</svg>
