<svg width="565" height="679" viewBox="0 0 565 679" fill="none" xmlns="http://www.w3.org/2000/svg">
<path d="M301.094 294C73.8813 381.322 -244.216 567.377 301.094 613.025V294Z" fill="#0172FF"/>
<path d="M363.853 323.885C137.204 408.919 -180.104 546.907 363.853 591.358V323.885Z" fill="#0F172A"/>
<path d="M423.623 341.069C196.974 415.414 -120.333 536.057 423.623 574.921V341.069Z" fill="#0172FF"/>
<path d="M375.807 378.426C230.909 432.581 28.0534 520.462 375.807 548.772V378.426Z" fill="#0F172A"/>
<path opacity="0.3" d="M419.703 272.967H300.756L211.256 0H509.037L419.703 272.967Z" fill="url(#paint0_linear_1_98)"/>
<path opacity="0.15" d="M436.908 272.967H283.55L156 0H564.292L436.908 272.967Z" fill="url(#paint1_linear_1_98)"/>
<path d="M436.08 122.256C435.253 119.278 434.26 116.3 433.102 113.488C432.109 111.337 431.117 109.021 429.959 107.036C428.966 105.216 427.808 103.396 426.485 101.742C425.326 100.088 424.003 98.5987 422.68 97.1098C422.183 96.6135 421.687 95.9517 421.191 95.4554L411.265 85.1985C411.761 85.6948 412.257 86.3565 412.754 86.8528C414.077 88.3417 415.4 89.8307 416.558 91.485C417.882 93.1393 419.04 94.9591 420.033 96.7789C421.191 98.9295 422.349 101.08 423.176 103.231C424.334 106.043 425.327 109.021 426.154 111.999C428.635 121.594 428.966 132.016 426.815 143.1C426.319 145.913 425.657 148.56 424.83 151.207C423.838 154.515 422.68 157.659 421.191 160.802C420.033 163.284 418.875 165.6 417.551 167.916C416.393 170.066 415.07 172.052 413.746 174.037C412.423 175.857 411.099 177.676 409.776 179.496C408.452 181.15 406.963 182.805 405.474 184.459C403.985 186.113 402.331 187.602 400.842 189.091C399.188 190.58 397.534 192.069 395.714 193.558C393.894 195.047 391.909 196.536 389.924 197.859C387.607 199.348 385.457 200.837 382.975 201.995C379.997 203.649 377.02 204.973 374.042 206.296C363.62 210.432 352.37 212.583 341.12 212.087C324.081 211.259 309.688 204.311 299.266 193.723L309.192 203.98C319.449 214.734 334.007 221.516 351.046 222.344C362.296 223.005 373.546 220.855 383.968 216.553C386.946 215.395 389.924 213.906 392.901 212.252C395.217 210.929 397.534 209.605 399.85 208.116C401.835 206.793 403.82 205.304 405.64 203.815C407.46 202.326 409.114 201.003 410.768 199.348C412.423 197.859 413.912 196.37 415.4 194.716C416.889 193.062 418.378 191.407 419.702 189.753C421.191 187.933 422.514 186.113 423.672 184.294C424.996 182.308 426.319 180.323 427.477 178.173C428.801 175.857 429.959 173.54 431.117 171.059C432.44 167.916 433.764 164.772 434.756 161.464C435.583 158.817 436.245 156.17 436.741 153.357C438.892 142.439 438.561 131.851 436.08 122.256Z" fill="url(#paint2_linear_1_98)"/>
<path d="M369.576 66.8364C409.114 68.987 434.922 103.066 426.981 143.267C419.041 183.302 380.66 214.238 341.121 212.088C301.582 209.937 275.774 175.858 283.715 135.657C291.491 95.6219 329.871 64.6857 369.576 66.8364Z" fill="url(#paint3_linear_1_98)"/>
<path d="M367.921 75.1057C402.993 76.9255 425.658 107.2 418.71 142.603C411.761 178.006 377.682 205.303 342.775 203.483C307.703 201.663 285.039 171.389 291.987 135.986C298.77 100.583 332.849 73.286 367.921 75.1057Z" fill="url(#paint4_linear_1_98)"/>
<path d="M343.485 125.469C343.31 124.215 343.088 121.835 343.612 118.338C345.614 104.928 357.056 85.2522 357.056 85.0251C353.315 89.0504 347.92 95.2882 343.175 102.722C338.432 110.153 334.341 118.783 333.214 127.595C332.904 130.01 332.858 132.14 333.214 134.476C333.55 136.68 334.198 138.74 335.074 140.655C336.474 136.974 339.171 132.589 343.829 127.354C343.686 126.72 343.571 126.089 343.485 125.469Z" fill="#FFB703"/>
<path d="M375.054 137.386C373.653 141.057 370.954 145.43 366.293 150.65C363.759 153.486 360.648 156.572 356.851 159.929C354.289 158.761 348.932 156.143 343.915 151.979C344.408 146.851 347.359 141.865 350.636 139.213C351.453 139.79 352.329 140.251 353.262 140.574C353.733 140.734 353.967 140.774 354.037 140.786C355.655 141.047 357.51 140.295 359.268 138.873C362.545 136.223 365.497 131.237 365.991 126.107C366.057 125.424 366.078 124.736 366.051 124.051C365.975 122.111 365.524 120.684 365.085 119.317C363.121 113.237 359.218 109.351 356.855 107.365C356.863 107.369 356.869 107.375 356.877 107.379C357.616 107.854 373.173 117.884 375.872 127.644C376.571 130.177 376.591 133.36 375.054 137.386Z" fill="#FFB703"/>
<path d="M366.255 125.825C365.761 130.956 362.809 135.94 359.532 138.591C358.714 138.014 357.838 137.553 356.906 137.23C356.437 137.07 356.201 137.028 356.132 137.018C354.515 136.757 352.66 137.509 350.9 138.932C347.623 141.583 344.673 146.57 344.179 151.698C344.113 152.381 344.093 153.069 344.119 153.754C344.196 155.694 344.647 157.121 345.086 158.488C346.965 164.304 350.614 168.112 352.997 170.17C353.089 170.252 353.182 170.328 353.271 170.402C353.285 170.416 353.301 170.428 353.315 170.44C353.309 170.436 353.291 170.424 353.262 170.406C352.223 169.737 336.967 159.815 334.299 150.161C333.598 147.63 333.578 144.447 335.116 140.421C336.518 136.749 339.217 132.376 343.879 127.156C346.359 124.378 349.394 121.362 353.085 118.085C353.162 118.015 353.24 117.947 353.319 117.877C355.881 119.041 361.236 121.66 366.255 125.825Z" fill="#243455"/>
<path d="M376.956 150.212C377.264 147.797 377.313 145.667 376.956 143.331C376.62 141.127 375.972 139.067 375.097 137.152C373.696 140.833 371 145.218 366.343 150.453C366.484 151.086 366.599 151.717 366.685 152.338C366.858 153.592 367.082 155.972 366.558 159.469C364.556 172.879 353.114 192.555 353.114 192.782C356.855 188.757 362.25 182.519 366.995 175.085C371.738 167.654 375.829 159.024 376.956 150.212Z" fill="#243455"/>
<path d="M375.068 137.379C373.681 141.051 371.01 145.425 366.398 150.648C363.891 153.484 360.812 156.571 357.055 159.929C362.454 153.959 365.507 148.246 367.233 144.341C369.551 139.093 371.231 135.288 370.954 129.99C370.552 122.332 366.329 116.823 364.517 114.462C361.884 111.032 359.074 108.756 357.079 107.365C357.81 107.84 373.204 117.874 375.875 127.636C376.568 130.168 376.588 133.351 375.068 137.379Z" fill="#FB8500"/>
<path d="M353.114 170.423C353.1 170.427 353.084 170.433 353.07 170.437C353.066 170.439 353.066 170.441 353.062 170.441C352.034 169.775 336.935 159.889 334.294 150.272C333.6 147.75 333.58 144.579 335.103 140.568C336.491 136.91 339.161 132.554 343.776 127.352C346.229 124.585 349.233 121.58 352.887 118.316C347.631 124.166 344.641 129.75 342.941 133.584C340.62 138.811 338.94 142.601 339.219 147.876C339.622 155.505 343.845 160.989 345.655 163.341C348.161 166.596 350.83 168.806 352.801 170.206C352.907 170.28 353.012 170.352 353.114 170.423Z" fill="#132F45"/>
<path d="M301.417 54.0963C305.346 54.0963 308.531 50.9114 308.531 46.9826C308.531 43.0538 305.346 39.8689 301.417 39.8689C297.489 39.8689 294.304 43.0538 294.304 46.9826C294.304 50.9114 297.489 54.0963 301.417 54.0963Z" fill="url(#paint5_linear_1_98)"/>
<path opacity="0.5" d="M321.104 235.907C321.104 240.87 317.134 245.006 312.005 245.006C306.877 245.006 302.906 241.035 302.906 235.907C302.906 230.779 306.877 226.808 312.005 226.808C317.134 226.808 321.104 230.944 321.104 235.907Z" fill="url(#paint6_linear_1_98)"/>
<path d="M423.341 213.905C423.341 215.725 421.852 217.214 420.033 217.214C418.213 217.214 416.724 215.725 416.724 213.905C416.724 212.085 418.213 210.596 420.033 210.596C421.852 210.596 423.341 212.085 423.341 213.905Z" fill="url(#paint7_linear_1_98)"/>
<path d="M368.749 259.565C368.749 261.054 367.591 262.377 365.936 262.377C364.447 262.377 363.124 261.219 363.124 259.565C363.124 257.911 364.282 256.753 365.936 256.753C367.591 256.753 368.749 258.076 368.749 259.565Z" fill="url(#paint8_linear_1_98)"/>
<path d="M270.481 118.121C270.481 119.61 269.323 120.934 267.668 120.934C266.179 120.934 264.856 119.776 264.856 118.121C264.856 116.467 266.014 115.309 267.668 115.309C269.157 115.309 270.481 116.632 270.481 118.121Z" fill="url(#paint9_linear_1_98)"/>
<path d="M402.332 49.7941C402.332 51.283 401.174 52.6064 399.52 52.6064C398.031 52.6064 396.707 51.4484 396.707 49.7941C396.707 48.3052 397.865 46.9817 399.52 46.9817C401.174 46.9817 402.332 48.3052 402.332 49.7941Z" fill="url(#paint10_linear_1_98)"/>
<path opacity="0.2" d="M403.821 245.008C406.105 245.008 407.957 243.156 407.957 240.872C407.957 238.588 406.105 236.736 403.821 236.736C401.537 236.736 399.685 238.588 399.685 240.872C399.685 243.156 401.537 245.008 403.821 245.008Z" fill="url(#paint11_linear_1_98)"/>
<path opacity="0.3" d="M450.473 105.051C450.473 107.367 448.653 109.187 446.337 109.187C444.021 109.187 442.201 107.367 442.201 105.051C442.201 102.735 444.021 100.915 446.337 100.915C448.653 100.915 450.473 102.735 450.473 105.051Z" fill="url(#paint12_linear_1_98)"/>
<g filter="url(#filter0_d_1_98)">
<path d="M439.513 562.496C439.978 563.892 440.211 565.521 440.676 567.15C446.958 591.118 454.171 626.954 452.31 641.846C451.844 645.337 450.914 647.664 449.285 648.594C448.82 648.827 448.354 648.827 447.889 648.827C446.26 649.06 444.166 648.362 441.607 647.198C426.716 639.752 400.657 609.501 396.004 599.262C395.306 598.099 395.073 596.935 395.306 596.47C397.865 586.231 429.275 541.553 432.998 543.88C433.929 544.578 436.488 552.025 439.513 562.496Z" fill="url(#paint13_linear_1_98)"/>
<path d="M396.003 599.262C396.003 602.985 437.883 577.388 432.997 543.88C432.997 543.88 396.003 564.357 396.003 599.262Z" fill="url(#paint14_linear_1_98)"/>
<path opacity="0.3" d="M439.512 562.496C439.512 562.496 417.874 579.716 416.943 593.91C416.012 607.872 429.507 634.633 441.839 647.198C426.948 639.752 400.889 609.501 396.236 599.262C395.538 598.099 395.305 596.935 395.538 596.47C398.097 586.231 429.507 541.553 433.23 543.88C433.928 544.578 436.487 552.025 439.512 562.496Z" fill="url(#paint15_linear_1_98)"/>
<path d="M292.464 568.312C291.998 569.708 291.766 571.337 291.3 572.966C285.018 596.934 277.805 632.769 279.667 647.662C280.132 651.152 281.063 653.479 282.692 654.41C283.157 654.643 283.622 654.643 284.088 654.643C285.716 654.876 287.81 654.177 290.37 653.014C305.26 645.568 331.319 615.317 335.973 605.078C336.671 603.915 336.904 602.751 336.671 602.286C334.111 592.047 302.701 547.369 298.978 549.696C297.815 550.394 295.256 557.608 292.464 568.312Z" fill="url(#paint16_linear_1_98)"/>
<path d="M335.742 605.079C335.742 608.802 293.862 583.205 298.748 549.697C298.748 549.697 335.742 570.174 335.742 605.079Z" fill="url(#paint17_linear_1_98)"/>
<path d="M306.659 605.545C308.288 606.941 302.704 621.601 299.213 621.136C295.956 620.903 302.936 602.52 306.659 605.545Z" fill="white"/>
<path d="M432.765 627.185C434.859 626.953 439.512 635.562 436.72 637.657C433.928 639.751 427.879 627.651 432.765 627.185Z" fill="white"/>
<path opacity="0.3" d="M292.467 568.312C292.467 568.312 314.105 585.531 315.036 599.726C315.966 613.688 302.471 640.448 290.14 653.014C305.031 645.568 331.09 615.317 335.743 605.078C336.441 603.915 336.674 602.751 336.441 602.286C333.882 592.047 302.471 547.369 298.749 549.696C297.818 550.394 295.259 557.608 292.467 568.312Z" fill="url(#paint18_linear_1_98)"/>
<path d="M302.704 274.881C302.704 274.881 288.046 262.315 270.363 260.221C270.363 260.221 265.012 262.781 258.497 282.56C252.215 302.107 263.848 340.967 263.848 340.967L302.704 274.881Z" fill="url(#paint19_linear_1_98)"/>
<path d="M263.382 269.994C263.382 269.994 266.174 263.246 270.362 260.221C270.362 260.221 285.02 273.717 284.322 306.063L280.134 310.484L263.382 269.994Z" fill="url(#paint20_linear_1_98)"/>
<path d="M422.994 274.881C422.994 274.881 437.652 262.315 455.335 260.221C455.335 260.221 460.687 262.781 467.201 282.56C473.484 302.107 461.85 340.967 461.85 340.967L422.994 274.881Z" fill="url(#paint21_linear_1_98)"/>
<path d="M455.335 260.219C455.335 260.219 440.91 275.577 440.91 300.476L446.494 303.967L462.781 270.458C462.781 270.458 457.429 259.754 455.335 260.219Z" fill="url(#paint22_linear_1_98)"/>
<path d="M446.026 302.34C446.026 302.34 442.304 281.165 456.264 265.341C456.264 265.341 472.085 272.787 478.6 300.479C485.115 328.17 468.13 344.691 468.13 344.691L446.026 302.34Z" fill="url(#paint23_linear_1_98)"/>
<path d="M279.67 302.34C279.67 302.34 283.393 281.165 269.432 265.341C269.432 265.341 253.611 272.787 247.096 300.479C240.581 328.17 257.566 344.691 257.566 344.691L279.67 302.34Z" fill="url(#paint24_linear_1_98)"/>
<path d="M465.571 419.852C432.997 465.461 280.366 461.97 260.589 425.204C247.559 401.236 248.955 364.935 261.519 331.659C277.806 287.912 313.405 249.284 360.404 249.284C415.779 249.284 458.358 304.433 471.155 354.696C477.437 380.293 476.506 404.494 465.571 419.852Z" fill="url(#paint25_linear_1_98)"/>
<path d="M271.99 377.499C279.202 408.448 413.453 411.938 446.259 383.782C479.066 355.625 431.834 255.798 359.008 260.219C292.697 264.175 260.123 326.771 271.99 377.499Z" fill="#DFE3FB"/>
<path d="M271.292 373.778C278.505 404.727 412.756 408.217 445.562 380.061C478.601 351.904 431.136 252.077 358.311 256.498C292 260.454 259.426 323.05 271.292 373.778Z" fill="url(#paint26_linear_1_98)"/>
<path opacity="0.3" d="M465.571 419.852C432.997 465.461 280.366 461.97 260.589 425.204C247.559 401.236 248.955 364.935 261.519 331.659C261.054 333.521 248.257 380.293 261.287 400.77C274.549 421.713 327.365 418.921 384.136 416.361C440.908 414.034 459.521 405.657 469.061 389.601C476.506 377.035 469.061 349.344 465.571 337.942L471.155 354.463C477.437 380.293 476.506 404.494 465.571 419.852Z" fill="url(#paint27_linear_1_98)"/>
<path d="M360.405 453.362C328.762 453.362 305.728 449.872 292.931 444.519C284.555 441.262 280.367 437.073 281.065 433.117C281.53 430.558 287.58 428.463 297.352 426.602C326.203 421.482 385.766 419.853 417.875 424.74C420.667 425.205 423.226 425.671 425.553 426.136C426.018 426.136 426.483 426.369 426.949 426.369H427.181C432.765 427.765 436.721 429.394 438.349 431.488C438.815 431.954 439.047 432.419 439.28 433.117C442.77 443.356 389.256 453.362 360.405 453.362Z" fill="url(#paint28_linear_1_98)"/>
<path opacity="0.5" d="M439.28 430.558C439.28 430.79 439.047 431.256 438.815 431.488C435.79 435.91 422.993 441.494 422.993 441.494C422.993 441.494 374.598 421.715 335.277 430.558C295.956 439.4 292.931 444.519 292.931 444.519C284.555 441.262 280.367 437.073 281.065 433.117C281.53 430.558 287.58 428.463 297.352 426.602C326.203 421.482 385.766 419.853 417.875 424.74C421.132 425.438 424.389 425.904 426.949 426.602H427.181C435.092 428.231 439.745 429.627 439.28 430.558Z" fill="url(#paint29_linear_1_98)"/>
<path d="M425.786 426.135C418.34 433.348 382.277 439.399 361.802 439.399C325.04 439.399 302.704 433.581 297.585 426.6C328.995 421.015 396.702 419.619 425.786 426.135Z" fill="url(#paint30_linear_1_98)"/>
<path opacity="0.5" d="M260.59 425.202C260.59 425.202 267.104 417.756 279.669 411.706C292.233 405.656 303.866 401.002 305.728 396.115C307.589 391.228 271.06 394.021 271.06 394.021L252.912 401.933C252.912 401.7 255.704 416.36 260.59 425.202Z" fill="url(#paint31_linear_1_98)"/>
<path d="M245.7 310.251C245.7 310.251 255.006 316.301 248.957 330.263C248.957 330.263 204.982 354.231 207.542 380.293C209.636 402.167 270.362 391.463 270.362 391.463L272.456 398.677C272.456 398.677 220.804 408.683 203.121 396.582C203.121 396.582 197.072 382.155 212.195 356.326C227.086 330.729 245.7 310.251 245.7 310.251Z" fill="url(#paint32_linear_1_98)"/>
<path d="M262.684 389.601C257.1 395.884 268.966 402.632 278.506 403.795C289.441 404.959 308.52 400.77 307.357 389.834C306.193 378.897 275.714 374.941 262.684 389.601Z" fill="url(#paint33_linear_1_98)"/>
<path opacity="0.5" d="M293.162 295.359C291.533 305.365 313.869 304.9 344.349 303.969C380.878 302.806 417.64 334.22 439.046 311.648C442.536 307.925 407.635 259.058 365.289 259.989C322.943 260.92 294.79 286.75 293.162 295.359Z" fill="url(#paint34_linear_1_98)"/>
<path opacity="0.5" d="M313.87 382.854C312.009 390.067 327.132 396.118 364.592 395.652C412.057 395.187 420.433 383.552 419.502 382.854C419.502 382.854 399.725 394.489 362.731 386.112C338.3 380.76 315.964 375.175 313.87 382.854Z" fill="url(#paint35_linear_1_98)"/>
<path opacity="0.3" d="M465.107 337.245L463.943 333.987C464.176 334.452 464.641 335.616 465.107 337.245Z" fill="url(#paint36_linear_1_98)"/>
<path d="M386.231 255.564C382.973 256.263 409.963 270.69 411.126 268.828C412.29 267.199 395.072 253.47 386.231 255.564Z" fill="white"/>
<path d="M437.883 266.269C435.091 267.665 435.323 270.69 440.908 269.992C446.492 269.294 449.516 264.873 448.818 263.942C448.353 263.244 440.908 264.64 437.883 266.269Z" fill="white"/>
<path d="M263.381 390.765C263.149 392.627 301.772 393.092 302.702 386.111C303.633 379.363 265.941 377.036 263.381 390.765Z" fill="url(#paint37_linear_1_98)"/>
<path opacity="0.2" d="M272.922 363.54C272.922 363.54 271.293 353.068 273.155 338.873C275.016 324.679 278.739 315.604 281.065 316.767C283.392 318.163 282.927 331.893 284.323 345.622C285.253 356.326 287.347 366.332 287.347 366.332C287.347 366.332 277.575 375.64 272.922 363.54Z" fill="url(#paint38_linear_1_98)"/>
<path opacity="0.72" d="M468.364 277.907C468.364 277.907 463.245 271.624 456.265 273.253C449.285 274.882 448.82 296.988 453.008 297.454C457.196 297.919 459.057 285.353 462.082 283.259C465.339 281.165 470.923 282.096 470.923 282.096L468.364 277.907Z" fill="url(#paint39_linear_1_98)"/>
<path opacity="0.72" d="M252.446 285.584C252.446 285.584 255.238 282.559 261.288 283.49C267.337 284.421 270.827 296.987 273.852 295.59C276.877 294.427 274.783 274.182 266.406 268.365C266.406 268.365 255.936 277.44 252.446 285.584Z" fill="url(#paint40_linear_1_98)"/>
<path d="M244.07 314.904C244.07 314.904 222.664 338.872 224.06 340.734C225.223 342.363 245.466 317.464 244.07 314.904Z" fill="url(#paint41_linear_1_98)"/>
<path d="M318.291 444.751C315.499 458.48 309.915 478.027 300.608 492.919C285.252 517.586 263.148 548.069 262.45 549C251.747 552.956 240.579 550.396 233.599 548.069C229.411 546.673 226.619 545.044 226.619 545.044C226.619 545.044 235.693 515.026 258.96 483.844C270.593 468.021 284.554 454.059 295.954 443.82C295.954 443.82 295.954 443.82 296.187 443.587C296.42 443.355 296.42 443.355 296.652 443.122L296.885 442.889L297.118 442.657L297.35 442.424C308.984 432.185 318.058 426.6 319.454 427.764C320.617 428.695 320.152 435.443 318.291 444.751Z" fill="url(#paint42_linear_1_98)"/>
<path opacity="0.3" d="M318.291 444.75C315.499 458.479 309.915 478.026 300.608 492.918C285.252 517.585 263.148 548.068 262.45 548.999L233.599 548.068C229.411 546.672 226.619 545.043 226.619 545.043C226.619 545.043 235.693 515.025 258.96 483.843C270.593 468.02 284.554 454.058 295.954 443.819C289.44 449.869 261.287 475.931 250.351 500.598C238.02 528.754 267.569 522.704 282.227 506.648C296.885 490.591 317.825 444.284 317.825 444.284L318.291 444.75Z" fill="url(#paint43_linear_1_98)"/>
<path d="M288.045 473.606C285.951 472.442 293.397 460.807 296.887 461.273C300.377 461.738 289.674 474.769 288.045 473.606Z" fill="white"/>
<path d="M277.11 489.893C275.482 488.729 272.922 493.151 274.318 494.314C275.714 495.245 278.739 491.289 277.11 489.893Z" fill="white"/>
<path d="M231.505 532.478C231.505 532.478 238.95 517.585 251.515 523.635C264.079 529.453 255.005 549.93 255.005 549.93C255.005 549.93 238.252 557.609 226.619 545.509C226.619 545.276 228.248 539.924 231.505 532.478Z" fill="url(#paint44_linear_1_98)"/>
<path d="M231.04 528.754C231.04 528.754 247.094 522.238 254.54 529.685C260.589 535.735 258.262 548.766 254.772 557.143C251.282 565.52 226.852 592.281 215.916 592.048C204.981 591.583 199.164 579.715 203.585 565.753C203.585 565.753 219.174 538.062 231.04 528.754Z" fill="url(#paint45_linear_1_98)"/>
<path d="M231.04 528.756C231.04 528.756 230.807 543.649 221.268 553.888C211.728 564.126 205.446 586.465 205.446 586.465C205.446 586.465 200.328 580.881 203.352 565.755C206.61 550.63 231.04 528.756 231.04 528.756Z" fill="url(#paint46_linear_1_98)"/>
<path opacity="0.5" d="M204.282 562.727L212.426 568.079C212.426 568.079 215.45 560.866 219.638 555.746C223.826 550.627 227.316 540.621 227.316 540.621L204.282 562.727Z" fill="url(#paint47_linear_1_98)"/>
<path d="M228.481 530.616C228.481 530.616 221.268 532.245 210.333 539.458C199.63 546.905 193.115 555.514 192.417 557.609C191.719 559.936 194.976 563.892 198.699 564.124C202.422 564.357 214.986 557.143 214.986 557.143C214.986 557.143 231.971 541.087 228.481 530.616Z" fill="url(#paint48_linear_1_98)"/>
<path d="M221.269 553.885C221.269 553.885 241.046 546.904 255.936 553.885L254.54 557.142C254.54 557.142 239.417 549.696 219.407 555.746L221.269 553.885Z" fill="url(#paint49_linear_1_98)"/>
<path d="M202.189 554.584C201.258 553.421 211.961 546.207 212.426 548.068C213.124 549.93 203.585 556.213 202.189 554.584Z" fill="white"/>
<path d="M319.687 427.995C319.687 427.995 304.331 453.592 305.96 482.912C306.193 482.912 325.969 447.077 319.687 427.995Z" fill="url(#paint50_linear_1_98)"/>
<path d="M407.404 442.424C410.196 456.154 415.78 475.7 425.087 490.593C440.443 515.259 462.547 545.743 463.245 546.673C473.948 550.629 485.116 548.07 492.096 545.743C496.284 544.346 499.076 542.718 499.076 542.718C499.076 542.718 490.002 512.699 466.735 481.518C455.101 465.694 441.141 451.732 429.74 441.494C429.74 441.494 429.741 441.494 429.508 441.261C429.275 441.028 429.275 441.028 429.042 440.796L428.81 440.563L428.577 440.33L428.344 440.097C416.711 429.859 407.637 424.274 406.241 425.437C405.078 426.368 405.543 433.117 407.404 442.424Z" fill="url(#paint51_linear_1_98)"/>
<path opacity="0.3" d="M407.404 442.422C410.196 456.151 415.78 475.698 425.087 490.59C440.443 515.256 462.546 545.74 463.244 546.671L492.096 545.74C496.284 544.344 499.076 542.715 499.076 542.715C499.076 542.715 490.001 512.697 466.735 481.515C455.101 465.692 441.141 451.73 429.74 441.491C436.255 447.541 464.408 473.603 475.343 498.269C487.675 526.426 458.126 520.376 443.468 504.32C428.809 488.263 407.869 441.956 407.869 441.956L407.404 442.422Z" fill="url(#paint52_linear_1_98)"/>
<path d="M437.651 471.278C439.745 470.114 432.3 458.479 428.809 458.945C425.319 459.41 436.022 472.441 437.651 471.278Z" fill="white"/>
<path d="M494.188 529.919C494.188 529.919 486.742 515.027 474.178 521.077C461.614 526.894 470.688 547.372 470.688 547.372C470.688 547.372 487.44 555.051 499.074 542.95C499.074 542.95 497.445 537.598 494.188 529.919Z" fill="url(#paint53_linear_1_98)"/>
<path d="M494.655 526.426C494.655 526.426 478.6 519.91 471.155 527.357C465.105 533.407 467.432 546.438 470.922 554.815C474.412 563.192 498.843 589.953 509.778 589.72C520.714 589.254 526.53 577.387 522.11 563.425C522.11 563.425 506.521 535.734 494.655 526.426Z" fill="url(#paint54_linear_1_98)"/>
<path d="M489.304 524.797C489.304 524.797 493.027 540.853 504.427 551.557C514.665 561.098 520.249 584.135 520.249 584.135C520.249 584.135 525.368 578.55 522.343 563.425C519.086 548.299 489.304 524.797 489.304 524.797Z" fill="url(#paint55_linear_1_98)"/>
<path opacity="0.5" d="M521.411 560.4L513.501 565.054C513.501 565.054 510.476 558.073 506.055 553.419C492.328 538.991 489.536 524.797 489.536 524.797L508.149 541.784C508.149 541.784 512.803 546.671 516.06 551.092C517.689 553.419 521.411 560.4 521.411 560.4Z" fill="url(#paint56_linear_1_98)"/>
<path d="M489.304 524.799C489.304 524.799 493.027 523.636 506.289 523.403C519.784 523.17 526.996 526.893 528.858 528.057C530.719 529.22 531.184 534.34 528.625 537.132C526.066 539.925 502.333 544.113 502.333 544.113C502.333 544.113 493.725 534.805 489.304 524.799Z" fill="url(#paint57_linear_1_98)"/>
<path d="M504.425 551.56C504.425 551.56 484.648 544.579 469.757 551.56L471.153 554.817C471.153 554.817 486.277 547.371 506.287 553.421L504.425 551.56Z" fill="url(#paint58_linear_1_98)"/>
<path d="M518.155 526.66C518.387 525.263 505.358 525.496 506.056 527.358C506.521 529.219 517.922 528.754 518.155 526.66Z" fill="white"/>
<path d="M406.008 425.667C406.008 425.667 421.364 451.264 419.736 480.584C419.503 480.584 399.726 444.516 406.008 425.667Z" fill="url(#paint59_linear_1_98)"/>
<path d="M347.142 373.543C347.142 373.543 356.216 362.141 365.755 360.047C375.295 357.953 378.552 369.588 378.552 369.588C378.552 369.588 360.869 368.191 347.142 373.543Z" fill="#2F95CD"/>
<path d="M426.019 558.539C421.598 584.601 398.098 602.054 364.594 602.054C335.278 602.054 310.615 591.117 304.1 567.149C297.585 543.181 300.144 498.736 308.753 471.277C310.149 467.089 311.545 463.133 313.407 459.41C315.035 455.919 316.897 452.661 318.991 449.636C329.693 433.58 345.282 423.109 362.965 423.109C381.346 423.109 395.306 430.555 405.078 441.957C409.499 447.077 412.989 453.127 415.549 459.41C418.341 466.623 420.9 474.535 422.761 482.447V482.679C428.578 507.811 429.974 535.269 426.019 558.539Z" fill="url(#paint60_linear_1_98)"/>
<path opacity="0.3" d="M426.019 558.541C421.598 584.603 398.098 602.056 364.594 602.056C335.278 602.056 310.615 591.119 304.1 567.151C297.585 543.183 300.144 498.737 308.753 471.279C310.149 467.09 311.545 463.135 313.407 459.411C313.407 459.411 295.724 518.051 309.917 555.516C324.109 592.98 389.955 592.05 412.291 567.151C433.464 543.648 423.692 488.033 422.761 482.681C428.578 507.813 429.974 535.271 426.019 558.541Z" fill="url(#paint61_linear_1_98)"/>
<path d="M305.262 542.947C310.148 507.81 338.534 484.074 369.712 487.099C403.449 490.357 421.597 522.47 421.132 550.161C420.666 577.852 400.424 599.26 364.36 599.26C328.064 599.26 300.609 575.99 305.262 542.947Z" fill="url(#paint62_linear_1_98)"/>
<path d="M305.726 545.974C310.612 510.837 338.998 487.102 370.176 489.894C403.913 493.152 422.061 525.264 421.596 552.955C421.13 580.646 400.888 602.055 364.824 602.055C328.76 602.055 300.84 578.785 305.726 545.974Z" fill="url(#paint63_radial_1_98)"/>
<path opacity="0.5" d="M404.843 441.957C397.631 453.127 358.31 459.642 335.508 457.548C315.731 455.686 318.756 450.334 318.756 449.636C329.459 433.58 345.047 423.109 362.73 423.109C381.344 423.109 395.304 430.555 404.843 441.957Z" fill="url(#paint64_linear_1_98)"/>
<path d="M390.884 461.272C389.023 461.971 389.023 476.631 390.884 478.958C392.746 481.285 395.77 480.586 396.934 477.096C398.097 473.838 393.676 460.342 390.884 461.272Z" fill="white"/>
<path opacity="0.72" d="M317.593 523.636C323.642 533.176 348.073 528.057 375.528 530.849C402.983 533.642 407.869 542.484 413.686 540.623C419.502 538.761 410.428 497.341 369.013 494.548C327.83 491.756 316.197 521.309 317.593 523.636Z" fill="url(#paint65_linear_1_98)"/>
<path opacity="0.72" d="M325.969 582.74C325.969 582.74 334.112 596.702 364.127 596.934C394.141 597.167 406.473 579.017 406.473 579.017C406.473 579.017 392.512 588.092 372.736 582.74C352.959 577.388 333.414 574.363 325.969 582.74Z" fill="url(#paint66_linear_1_98)"/>
</g>
<defs>
<filter id="filter0_d_1_98" x="192.322" y="249.284" width="358.095" height="429.424" filterUnits="userSpaceOnUse" color-interpolation-filters="sRGB">
<feFlood flood-opacity="0" result="BackgroundImageFix"/>
<feColorMatrix in="SourceAlpha" type="matrix" values="0 0 0 0 0 0 0 0 0 0 0 0 0 0 0 0 0 0 127 0" result="hardAlpha"/>
<feOffset dx="10.4087" dy="14.412"/>
<feGaussianBlur stdDeviation="4.804"/>
<feComposite in2="hardAlpha" operator="out"/>
<feColorMatrix type="matrix" values="0 0 0 0 0 0 0 0 0 0 0 0 0 0 0 0 0 0 0.25 0"/>
<feBlend mode="normal" in2="BackgroundImageFix" result="effect1_dropShadow_1_98"/>
<feBlend mode="normal" in="SourceGraphic" in2="effect1_dropShadow_1_98" result="shape"/>
</filter>
<linearGradient id="paint0_linear_1_98" x1="360.181" y1="272.957" x2="360.181" y2="5.68863" gradientUnits="userSpaceOnUse">
<stop stop-color="#8AFFFF"/>
<stop offset="1" stop-color="#79D3FD" stop-opacity="0"/>
</linearGradient>
<linearGradient id="paint1_linear_1_98" x1="360.181" y1="272.957" x2="360.181" y2="5.68863" gradientUnits="userSpaceOnUse">
<stop stop-color="#8AFFFF"/>
<stop offset="1" stop-color="#79D3FD" stop-opacity="0"/>
</linearGradient>
<linearGradient id="paint2_linear_1_98" x1="391.733" y1="132.996" x2="349.377" y2="211.973" gradientUnits="userSpaceOnUse">
<stop stop-color="#0F172A" stop-opacity="0.23"/>
<stop offset="1" stop-color="#0F172A"/>
</linearGradient>
<linearGradient id="paint3_linear_1_98" x1="282.182" y1="139.407" x2="428.32" y2="139.407" gradientUnits="userSpaceOnUse">
<stop stop-color="#0F172A"/>
<stop offset="1" stop-color="#0F172A"/>
</linearGradient>
<linearGradient id="paint4_linear_1_98" x1="290.611" y1="139.405" x2="419.891" y2="139.405" gradientUnits="userSpaceOnUse">
<stop stop-color="#0F172A" stop-opacity="0.31"/>
<stop offset="1" stop-color="#0F172A"/>
</linearGradient>
<linearGradient id="paint5_linear_1_98" x1="294.438" y1="46.9983" x2="308.562" y2="46.9983" gradientUnits="userSpaceOnUse">
<stop stop-color="#F9DD68"/>
<stop offset="1" stop-color="#F9A942"/>
</linearGradient>
<linearGradient id="paint6_linear_1_98" x1="303.005" y1="235.885" x2="321.101" y2="235.885" gradientUnits="userSpaceOnUse">
<stop stop-color="#F9DD68"/>
<stop offset="1" stop-color="#F9A942"/>
</linearGradient>
<linearGradient id="paint7_linear_1_98" x1="416.523" y1="213.904" x2="423.259" y2="213.904" gradientUnits="userSpaceOnUse">
<stop stop-color="#F9DD68"/>
<stop offset="1" stop-color="#F9A942"/>
</linearGradient>
<linearGradient id="paint8_linear_1_98" x1="363.352" y1="259.511" x2="368.825" y2="259.511" gradientUnits="userSpaceOnUse">
<stop stop-color="#F9DD68"/>
<stop offset="1" stop-color="#F9A942"/>
</linearGradient>
<linearGradient id="paint9_linear_1_98" x1="264.929" y1="118.098" x2="270.403" y2="118.098" gradientUnits="userSpaceOnUse">
<stop stop-color="#F9DD68"/>
<stop offset="1" stop-color="#F9A942"/>
</linearGradient>
<linearGradient id="paint10_linear_1_98" x1="396.909" y1="49.7342" x2="402.382" y2="49.7342" gradientUnits="userSpaceOnUse">
<stop stop-color="#F9DD68"/>
<stop offset="1" stop-color="#F9A942"/>
</linearGradient>
<linearGradient id="paint11_linear_1_98" x1="399.645" y1="240.793" x2="407.928" y2="240.793" gradientUnits="userSpaceOnUse">
<stop stop-color="#F9DD68"/>
<stop offset="1" stop-color="#F9A942"/>
</linearGradient>
<linearGradient id="paint12_linear_1_98" x1="442.223" y1="105.088" x2="450.505" y2="105.088" gradientUnits="userSpaceOnUse">
<stop stop-color="#F9DD68"/>
<stop offset="1" stop-color="#F9A942"/>
</linearGradient>
<linearGradient id="paint13_linear_1_98" x1="436.752" y1="651.986" x2="409.378" y2="550.111" gradientUnits="userSpaceOnUse">
<stop stop-color="#CBC1F7"/>
<stop offset="1" stop-color="#E8DCF7"/>
</linearGradient>
<linearGradient id="paint14_linear_1_98" x1="421.881" y1="589.606" x2="407.509" y2="554.388" gradientUnits="userSpaceOnUse">
<stop stop-color="#BE9DEA"/>
<stop offset="1" stop-color="#9E8CEF"/>
</linearGradient>
<linearGradient id="paint15_linear_1_98" x1="445.035" y1="645.934" x2="407.542" y2="554.059" gradientUnits="userSpaceOnUse">
<stop stop-color="#9D68C2"/>
<stop offset="1" stop-color="#CCEDFF"/>
</linearGradient>
<linearGradient id="paint16_linear_1_98" x1="295.05" y1="657.72" x2="322.424" y2="555.846" gradientUnits="userSpaceOnUse">
<stop stop-color="#CBC1F7"/>
<stop offset="1" stop-color="#E8DCF7"/>
</linearGradient>
<linearGradient id="paint17_linear_1_98" x1="309.923" y1="595.341" x2="324.295" y2="560.124" gradientUnits="userSpaceOnUse">
<stop stop-color="#BE9DEA"/>
<stop offset="1" stop-color="#9E8CEF"/>
</linearGradient>
<linearGradient id="paint18_linear_1_98" x1="286.77" y1="651.669" x2="324.263" y2="559.793" gradientUnits="userSpaceOnUse">
<stop stop-color="#9D68C2"/>
<stop offset="1" stop-color="#CCEDFF"/>
</linearGradient>
<linearGradient id="paint19_linear_1_98" x1="279.65" y1="340.818" x2="279.65" y2="260.129" gradientUnits="userSpaceOnUse">
<stop stop-color="#B9ACF4"/>
<stop offset="1" stop-color="#E1D1F5"/>
</linearGradient>
<linearGradient id="paint20_linear_1_98" x1="273.873" y1="310.335" x2="273.873" y2="260.129" gradientUnits="userSpaceOnUse">
<stop stop-color="#BE9DEA"/>
<stop offset="1" stop-color="#9E8CEF"/>
</linearGradient>
<linearGradient id="paint21_linear_1_98" x1="446.063" y1="340.818" x2="446.063" y2="260.129" gradientUnits="userSpaceOnUse">
<stop stop-color="#B9ACF4"/>
<stop offset="1" stop-color="#E1D1F5"/>
</linearGradient>
<linearGradient id="paint22_linear_1_98" x1="451.922" y1="303.985" x2="451.922" y2="260.121" gradientUnits="userSpaceOnUse">
<stop stop-color="#BE9DEA"/>
<stop offset="1" stop-color="#9E8CEF"/>
</linearGradient>
<linearGradient id="paint23_linear_1_98" x1="462.823" y1="344.679" x2="462.823" y2="265.4" gradientUnits="userSpaceOnUse">
<stop stop-color="#B61ADD"/>
<stop offset="1" stop-color="#A911FE"/>
</linearGradient>
<linearGradient id="paint24_linear_1_98" x1="262.887" y1="344.679" x2="262.887" y2="265.4" gradientUnits="userSpaceOnUse">
<stop stop-color="#7C1ADD"/>
<stop offset="1" stop-color="#A911FE"/>
</linearGradient>
<linearGradient id="paint25_linear_1_98" x1="354.152" y1="455.265" x2="379.808" y2="251.018" gradientUnits="userSpaceOnUse">
<stop stop-color="#CBC1F7"/>
<stop offset="1" stop-color="#E8DCF7"/>
</linearGradient>
<linearGradient id="paint26_linear_1_98" x1="362.522" y1="399.273" x2="362.522" y2="256.356" gradientUnits="userSpaceOnUse">
<stop stop-color="#0665BD"/>
<stop offset="1" stop-color="#1A1F77"/>
</linearGradient>
<linearGradient id="paint27_linear_1_98" x1="363.224" y1="453.377" x2="363.224" y2="331.634" gradientUnits="userSpaceOnUse">
<stop stop-color="#9D68C2"/>
<stop offset="1" stop-color="#CCEDFF"/>
</linearGradient>
<linearGradient id="paint28_linear_1_98" x1="281.182" y1="437.553" x2="439.809" y2="437.553" gradientUnits="userSpaceOnUse">
<stop stop-color="#8879EA"/>
<stop offset="1" stop-color="#9E8CEF"/>
</linearGradient>
<linearGradient id="paint29_linear_1_98" x1="360.263" y1="444.622" x2="360.263" y2="421.755" gradientUnits="userSpaceOnUse">
<stop stop-color="#8DA4E5"/>
<stop offset="1" stop-color="#755CBB"/>
</linearGradient>
<linearGradient id="paint30_linear_1_98" x1="359.861" y1="441.385" x2="362.839" y2="417.677" gradientUnits="userSpaceOnUse">
<stop stop-color="#5E36CC"/>
<stop offset="1" stop-color="#6C4A96"/>
</linearGradient>
<linearGradient id="paint31_linear_1_98" x1="279.288" y1="425.149" x2="279.288" y2="393.065" gradientUnits="userSpaceOnUse">
<stop stop-color="#8DA4E5"/>
<stop offset="1" stop-color="#755CBB"/>
</linearGradient>
<linearGradient id="paint32_linear_1_98" x1="235.738" y1="404.186" x2="247.497" y2="310.568" gradientUnits="userSpaceOnUse">
<stop stop-color="#BE9DEA"/>
<stop offset="1" stop-color="#9E8CEF"/>
</linearGradient>
<linearGradient id="paint33_linear_1_98" x1="281.386" y1="404.741" x2="287.436" y2="379.054" gradientUnits="userSpaceOnUse">
<stop stop-color="#7C1ADD"/>
<stop offset="1" stop-color="#A911FE"/>
</linearGradient>
<linearGradient id="paint34_linear_1_98" x1="293.138" y1="289.982" x2="439.325" y2="289.982" gradientUnits="userSpaceOnUse">
<stop/>
<stop offset="1" stop-color="#6A9BFF"/>
</linearGradient>
<linearGradient id="paint35_linear_1_98" x1="313.805" y1="387.389" x2="419.755" y2="387.389" gradientUnits="userSpaceOnUse">
<stop/>
<stop offset="1" stop-color="#6A9BFF"/>
</linearGradient>
<linearGradient id="paint36_linear_1_98" x1="464.613" y1="337.198" x2="464.613" y2="333.899" gradientUnits="userSpaceOnUse">
<stop stop-color="#9D68C2"/>
<stop offset="1" stop-color="#CCEDFF"/>
</linearGradient>
<linearGradient id="paint37_linear_1_98" x1="283.015" y1="391.962" x2="283.015" y2="380.757" gradientUnits="userSpaceOnUse">
<stop stop-color="#A73DE3"/>
<stop offset="1" stop-color="#C16DFF"/>
</linearGradient>
<linearGradient id="paint38_linear_1_98" x1="279.031" y1="369.714" x2="282.656" y2="316.838" gradientUnits="userSpaceOnUse">
<stop/>
<stop offset="1" stop-color="#00E3FF"/>
</linearGradient>
<linearGradient id="paint39_linear_1_98" x1="450.225" y1="285.233" x2="470.85" y2="285.233" gradientUnits="userSpaceOnUse">
<stop/>
<stop offset="1" stop-color="#D4E2FF"/>
</linearGradient>
<linearGradient id="paint40_linear_1_98" x1="252.378" y1="282.048" x2="275.108" y2="282.048" gradientUnits="userSpaceOnUse">
<stop stop-color="#D4E2FF"/>
<stop offset="1"/>
</linearGradient>
<linearGradient id="paint41_linear_1_98" x1="233.878" y1="340.91" x2="234.31" y2="314.715" gradientUnits="userSpaceOnUse">
<stop stop-color="#CBC1F7"/>
<stop offset="1" stop-color="#E8DCF7"/>
</linearGradient>
<linearGradient id="paint42_linear_1_98" x1="253.795" y1="554.843" x2="297.33" y2="420.738" gradientUnits="userSpaceOnUse">
<stop stop-color="#CBC1F7"/>
<stop offset="1" stop-color="#E8DCF7"/>
</linearGradient>
<linearGradient id="paint43_linear_1_98" x1="261.344" y1="553.581" x2="283.423" y2="438.123" gradientUnits="userSpaceOnUse">
<stop stop-color="#9D68C2"/>
<stop offset="1" stop-color="#CCEDFF"/>
</linearGradient>
<linearGradient id="paint44_linear_1_98" x1="242.807" y1="552.149" x2="241.712" y2="522.207" gradientUnits="userSpaceOnUse">
<stop stop-color="#BE9DEA"/>
<stop offset="1" stop-color="#9E8CEF"/>
</linearGradient>
<linearGradient id="paint45_linear_1_98" x1="256.917" y1="532.134" x2="202.635" y2="583.565" gradientUnits="userSpaceOnUse">
<stop stop-color="#CBC1F7"/>
<stop offset="1" stop-color="#E8DCF7"/>
</linearGradient>
<linearGradient id="paint46_linear_1_98" x1="240.43" y1="541.382" x2="196.256" y2="573.827" gradientUnits="userSpaceOnUse">
<stop stop-color="#BE9DEA"/>
<stop offset="1" stop-color="#9E8CEF"/>
</linearGradient>
<linearGradient id="paint47_linear_1_98" x1="231.341" y1="545.892" x2="205.753" y2="564.686" gradientUnits="userSpaceOnUse">
<stop stop-color="#8DA4E5"/>
<stop offset="1" stop-color="#755CBB"/>
</linearGradient>
<linearGradient id="paint48_linear_1_98" x1="229.565" y1="531.974" x2="195.882" y2="563.888" gradientUnits="userSpaceOnUse">
<stop stop-color="#CBC1F7"/>
<stop offset="1" stop-color="#E8DCF7"/>
</linearGradient>
<linearGradient id="paint49_linear_1_98" x1="250.548" y1="546.377" x2="226.061" y2="564.362" gradientUnits="userSpaceOnUse">
<stop stop-color="#BE9DEA"/>
<stop offset="1" stop-color="#9E8CEF"/>
</linearGradient>
<linearGradient id="paint50_linear_1_98" x1="307.354" y1="455.135" x2="319.782" y2="455.943" gradientUnits="userSpaceOnUse">
<stop stop-color="#8879EA"/>
<stop offset="1" stop-color="#9E8CEF"/>
</linearGradient>
<linearGradient id="paint51_linear_1_98" x1="471.914" y1="552.461" x2="428.379" y2="418.357" gradientUnits="userSpaceOnUse">
<stop stop-color="#CBC1F7"/>
<stop offset="1" stop-color="#E8DCF7"/>
</linearGradient>
<linearGradient id="paint52_linear_1_98" x1="464.365" y1="551.198" x2="442.286" y2="435.74" gradientUnits="userSpaceOnUse">
<stop stop-color="#9D68C2"/>
<stop offset="1" stop-color="#CCEDFF"/>
</linearGradient>
<linearGradient id="paint53_linear_1_98" x1="482.9" y1="549.768" x2="483.995" y2="519.827" gradientUnits="userSpaceOnUse">
<stop stop-color="#BE9DEA"/>
<stop offset="1" stop-color="#9E8CEF"/>
</linearGradient>
<linearGradient id="paint54_linear_1_98" x1="468.792" y1="529.751" x2="523.074" y2="581.182" gradientUnits="userSpaceOnUse">
<stop stop-color="#CBC1F7"/>
<stop offset="1" stop-color="#E8DCF7"/>
</linearGradient>
<linearGradient id="paint55_linear_1_98" x1="480.581" y1="536.673" x2="528.915" y2="572.175" gradientUnits="userSpaceOnUse">
<stop stop-color="#BE9DEA"/>
<stop offset="1" stop-color="#9E8CEF"/>
</linearGradient>
<linearGradient id="paint56_linear_1_98" x1="483.949" y1="532.086" x2="521.754" y2="559.854" gradientUnits="userSpaceOnUse">
<stop stop-color="#8DA4E5"/>
<stop offset="1" stop-color="#755CBB"/>
</linearGradient>
<linearGradient id="paint57_linear_1_98" x1="489.265" y1="533.516" x2="530.446" y2="533.812" gradientUnits="userSpaceOnUse">
<stop stop-color="#CBC1F7"/>
<stop offset="1" stop-color="#E8DCF7"/>
</linearGradient>
<linearGradient id="paint58_linear_1_98" x1="475.16" y1="543.997" x2="499.647" y2="561.982" gradientUnits="userSpaceOnUse">
<stop stop-color="#BE9DEA"/>
<stop offset="1" stop-color="#9E8CEF"/>
</linearGradient>
<linearGradient id="paint59_linear_1_98" x1="418.356" y1="452.752" x2="405.928" y2="453.56" gradientUnits="userSpaceOnUse">
<stop stop-color="#8879EA"/>
<stop offset="1" stop-color="#9E8CEF"/>
</linearGradient>
<linearGradient id="paint60_linear_1_98" x1="355.266" y1="601.868" x2="377.554" y2="424.429" gradientUnits="userSpaceOnUse">
<stop stop-color="#CBC1F7"/>
<stop offset="1" stop-color="#E8DCF7"/>
</linearGradient>
<linearGradient id="paint61_linear_1_98" x1="364.323" y1="602.173" x2="364.323" y2="459.415" gradientUnits="userSpaceOnUse">
<stop stop-color="#9D68C2"/>
<stop offset="1" stop-color="#CCEDFF"/>
</linearGradient>
<linearGradient id="paint62_linear_1_98" x1="362.955" y1="599.268" x2="362.955" y2="486.832" gradientUnits="userSpaceOnUse">
<stop stop-color="#BE9DEA"/>
<stop offset="1" stop-color="#9E8CEF"/>
</linearGradient>
<radialGradient id="paint63_radial_1_98" cx="0" cy="0" r="1" gradientUnits="userSpaceOnUse" gradientTransform="translate(366.796 588.286) scale(89.7814 89.7925)">
<stop stop-color="#9E40E0"/>
<stop offset="1" stop-color="#DD1AC9"/>
</radialGradient>
<linearGradient id="paint64_linear_1_98" x1="361.858" y1="457.902" x2="361.858" y2="423.1" gradientUnits="userSpaceOnUse">
<stop stop-color="#8DA4E5"/>
<stop offset="1" stop-color="#755CBB"/>
</linearGradient>
<linearGradient id="paint65_linear_1_98" x1="317.458" y1="517.595" x2="415.219" y2="517.595" gradientUnits="userSpaceOnUse">
<stop/>
<stop offset="1" stop-color="#FF955C"/>
</linearGradient>
<linearGradient id="paint66_linear_1_98" x1="366.338" y1="597.038" x2="366.338" y2="577.562" gradientUnits="userSpaceOnUse">
<stop stop-color="#FF4B90"/>
<stop offset="1"/>
</linearGradient>
</defs>
</svg>
