<svg width="46" height="108" viewBox="0 0 46 108" fill="none" xmlns="http://www.w3.org/2000/svg">
<path d="M11.4847 40.4688C11.3096 39.2148 11.0883 36.8354 11.6115 33.3387C13.6137 19.9285 25.0556 0.252476 25.0556 0.0253906C21.3147 4.05064 15.9198 10.2885 11.1748 17.722C6.43182 25.1535 2.34083 33.7828 1.21394 42.5949C0.904051 45.0105 0.857768 47.1407 1.21394 49.4758C1.55 51.6804 2.19795 53.7402 3.0733 55.6554C4.47386 51.9738 7.17033 47.5888 11.8288 42.3538C11.6859 41.7207 11.5712 41.0897 11.4847 40.4688Z" fill="#FFB703"/>
<path d="M43.0543 52.3856C41.6525 56.057 38.9536 60.4298 34.293 65.6503C31.7593 68.486 28.6476 71.5723 24.851 74.929C22.2891 73.7607 16.9316 71.1434 11.9146 66.979C12.408 61.8507 15.3586 56.8647 18.6356 54.2133C19.4533 54.7905 20.3294 55.2514 21.2619 55.5741C21.7332 55.7344 21.9669 55.7745 22.0373 55.7865C23.6547 56.047 25.5096 55.2955 27.2679 53.8726C30.5448 51.2233 33.4975 46.2373 33.9909 41.107C34.0574 40.4236 34.0775 39.7362 34.0514 39.0508C33.9748 37.1109 33.5237 35.684 33.0846 34.3173C31.1209 28.2371 27.2176 24.3512 24.855 22.3652C24.8631 22.3692 24.8691 22.3753 24.8772 22.3793C25.6164 22.8542 41.1732 32.8844 43.872 42.644C44.5709 45.1771 44.5911 48.3595 43.0543 52.3856Z" fill="#FFB703"/>
<path d="M34.2547 40.8253C33.7612 45.9558 30.8087 50.94 27.5319 53.5914C26.7143 53.0142 25.8382 52.5533 24.9057 52.2306C24.4364 52.0703 24.2008 52.0282 24.1323 52.0182C22.5151 51.7577 20.6602 52.5092 18.9 53.9321C15.6232 56.5836 12.6727 61.5698 12.1793 66.6983C12.1128 67.3817 12.0927 68.0691 12.1188 68.7545C12.1954 70.6945 12.6465 72.1214 13.0856 73.4882C14.9646 79.3042 18.614 83.112 20.9965 85.1702C21.0892 85.2523 21.1818 85.3285 21.2704 85.4026C21.2845 85.4167 21.3006 85.4287 21.3147 85.4407C21.3087 85.4367 21.2906 85.4247 21.2624 85.4067C20.2232 84.7373 4.96715 74.8149 2.29861 65.1611C1.59774 62.63 1.5776 59.4474 3.11629 55.4212C4.51803 51.7496 7.21678 47.3767 11.8792 42.156C14.3584 39.3783 17.3935 36.3621 21.0851 33.0854C21.1617 33.0152 21.2402 32.9471 21.3188 32.877C23.8806 34.0413 29.2358 36.6607 34.2547 40.8253Z" fill="#243455"/>
<path d="M44.9561 65.2128C45.264 62.7972 45.3123 60.6671 44.9561 58.3319C44.6201 56.1273 43.9721 54.0675 43.0967 52.1523C41.6961 55.8339 38.9996 60.2189 34.343 65.4539C34.4838 66.087 34.5986 66.718 34.6851 67.339C34.8581 68.593 35.0815 70.9723 34.5583 74.469C32.556 87.8792 21.1138 107.555 21.1138 107.782C24.8547 103.757 30.2499 97.5193 34.995 90.0857C39.7381 82.6542 43.8292 74.0249 44.9561 65.2128Z" fill="#243455"/>
<path d="M43.0673 52.3788C41.6802 56.0513 39.0096 60.4254 34.3978 65.6475C31.8906 68.4841 28.8115 71.5712 25.0547 74.929C30.4537 68.9592 33.5069 63.2459 35.2329 59.3409C37.5507 54.0927 39.2308 50.2879 38.9538 44.9896C38.5512 37.3319 34.328 31.8231 32.5164 29.4617C29.8837 26.0317 27.0736 23.7565 25.0786 22.3652C25.81 22.8403 41.2038 32.8736 43.8744 42.6362C44.568 45.1681 44.5879 48.3514 43.0673 52.3788Z" fill="#FB8500"/>
<path d="M21.1137 85.4242C21.0998 85.4282 21.0838 85.4342 21.0699 85.4382C21.0659 85.4401 21.0659 85.4421 21.0619 85.4421C20.0334 84.7753 4.93487 74.89 2.29388 65.2723C1.60024 62.7506 1.58031 59.5799 3.10312 55.5687C4.49039 51.9109 7.16129 47.5543 11.7756 42.3531C14.2292 39.5858 17.2329 36.5809 20.8865 33.3164C15.6304 39.1665 12.6406 44.7511 10.9404 48.5846C8.62031 53.8117 6.94004 57.6013 7.21908 62.8764C7.62171 70.5054 11.8453 75.9902 13.6551 78.3422C16.1606 81.5967 18.8295 83.8069 20.8008 85.2065C20.9064 85.2804 21.0121 85.3523 21.1137 85.4242Z" fill="#132F45"/>
</svg>
