<svg width="200" height="200" viewBox="0 0 200 200" fill="none" xmlns="http://www.w3.org/2000/svg">
<circle cx="100" cy="100" r="100" fill="white"/>
<path d="M80.7816 77.4798C80.4897 75.3892 80.1207 71.4224 80.993 65.5927C84.331 43.2357 103.407 10.4323 103.407 10.0537C97.17 16.7645 88.1757 27.164 80.265 39.557C72.3576 51.9467 65.5372 66.3332 63.6585 81.0245C63.1419 85.0517 63.0647 88.603 63.6585 92.4962C64.2188 96.1715 65.299 99.6057 66.7584 102.799C69.0933 96.6607 73.5888 89.3502 81.3553 80.6225C81.1171 79.5671 80.9259 78.5151 80.7816 77.4798Z" fill="#FFB703"/>
<path d="M133.413 97.3478C131.076 103.469 126.577 110.759 118.807 119.462C114.583 124.19 109.395 129.335 103.065 134.932C98.7941 132.984 89.8623 128.62 81.4979 121.678C82.3206 113.128 87.2398 104.815 92.703 100.395C94.0663 101.357 95.5269 102.126 97.0816 102.663C97.8673 102.931 98.2569 102.998 98.3744 103.018C101.071 103.452 104.163 102.199 107.095 99.8269C112.558 95.41 117.48 87.0974 118.303 78.5443C118.414 77.405 118.447 76.259 118.404 75.1163C118.276 71.8822 117.524 69.5033 116.792 67.2247C113.518 57.0879 107.011 50.6096 103.072 47.2986C103.085 47.3053 103.095 47.3153 103.109 47.322C104.341 48.1138 130.277 64.8359 134.777 81.1069C135.942 85.33 135.975 90.6356 133.413 97.3478Z" fill="#FFB703"/>
<path d="M118.743 78.0742C117.92 86.6277 112.998 94.9372 107.535 99.3576C106.172 98.3954 104.711 97.6269 103.157 97.089C102.374 96.8217 101.981 96.7515 101.867 96.7348C99.171 96.3004 96.0786 97.5534 93.144 99.9256C87.6811 104.346 82.7621 112.659 81.9394 121.209C81.8286 122.348 81.7951 123.494 81.8387 124.637C81.9663 127.871 82.7184 130.25 83.4504 132.529C86.5831 142.225 92.6672 148.573 96.6394 152.005C96.7938 152.142 96.9483 152.269 97.096 152.392C97.1195 152.416 97.1464 152.436 97.1699 152.456C97.1598 152.449 97.1296 152.429 97.0826 152.399C95.35 151.283 69.9156 134.741 65.4667 118.646C64.2982 114.426 64.2646 109.121 66.8299 102.408C69.1668 96.2871 73.6661 88.9966 81.4391 80.2927C85.5724 75.6618 90.6325 70.6333 96.7871 65.1705C96.9147 65.0535 97.0456 64.9399 97.1766 64.823C101.448 66.7642 110.376 71.1312 118.743 78.0742Z" fill="#243455"/>
<path d="M136.584 118.732C137.098 114.705 137.178 111.154 136.584 107.261C136.024 103.585 134.944 100.151 133.484 96.9583C131.149 103.096 126.654 110.407 118.89 119.134C119.125 120.19 119.317 121.242 119.461 122.277C119.749 124.368 120.122 128.334 119.249 134.164C115.911 156.521 96.8351 189.325 96.8351 189.703C103.072 182.992 112.067 172.593 119.977 160.2C127.885 147.81 134.706 133.424 136.584 118.732Z" fill="#243455"/>
<path d="M133.436 97.3364C131.123 103.459 126.671 110.752 118.982 119.458C114.802 124.187 109.669 129.334 103.406 134.932C112.407 124.979 117.497 115.454 120.374 108.943C124.239 100.194 127.04 93.8506 126.578 85.0174C125.907 72.2506 118.866 63.0666 115.846 59.1296C111.456 53.4113 106.771 49.618 103.446 47.2986C104.665 48.0907 130.329 64.8178 134.781 81.0938C135.938 85.3149 135.971 90.6221 133.436 97.3364Z" fill="#FB8500"/>
<path d="M96.8347 152.428C96.8115 152.434 96.7849 152.444 96.7616 152.451C96.755 152.454 96.755 152.458 96.7483 152.458C95.0336 151.346 69.8618 134.865 65.4588 118.831C64.3024 114.627 64.2691 109.341 66.8079 102.653C69.1207 96.5552 73.5736 89.292 81.2664 80.6207C85.357 76.0071 90.3648 70.9974 96.4559 65.5549C87.6931 75.3081 82.7086 84.6185 79.874 91.0096C76.006 99.7242 73.2047 106.042 73.67 114.837C74.3412 127.556 81.3827 136.699 84.4 140.621C88.577 146.047 93.0265 149.731 96.313 152.065C96.4891 152.188 96.6652 152.308 96.8347 152.428Z" fill="#132F45"/>
</svg>
