<svg width="46" height="108" viewBox="0 0 46 108" fill="none" xmlns="http://www.w3.org/2000/svg">
<path d="M11.4849 40.4685C11.3098 39.2145 11.0885 36.8351 11.6117 33.3384C13.6139 19.9283 25.0558 0.252232 25.0558 0.0251465C21.315 4.05039 15.92 10.2882 11.175 17.7218C6.43203 25.1533 2.34104 33.7825 1.21416 42.5947C0.904264 45.0102 0.857982 47.1404 1.21416 49.4756C1.55021 51.6801 2.19817 53.74 3.07351 55.6551C4.47407 51.9735 7.17055 47.5886 11.829 42.3535C11.6861 41.7205 11.5714 41.0895 11.4849 40.4685Z" fill="#FFB703"/>
<path d="M43.0543 52.3856C41.6525 56.057 38.9536 60.4298 34.293 65.6503C31.7593 68.486 28.6476 71.5723 24.851 74.929C22.2891 73.7607 16.9316 71.1434 11.9146 66.979C12.408 61.8507 15.3586 56.8647 18.6356 54.2133C19.4533 54.7905 20.3294 55.2514 21.2619 55.5741C21.7332 55.7344 21.9669 55.7745 22.0373 55.7865C23.6547 56.047 25.5096 55.2955 27.2679 53.8726C30.5448 51.2233 33.4975 46.2373 33.9909 41.107C34.0574 40.4236 34.0775 39.7362 34.0514 39.0508C33.9748 37.1109 33.5237 35.684 33.0846 34.3173C31.1209 28.2371 27.2176 24.3512 24.855 22.3652C24.8631 22.3692 24.8691 22.3753 24.8772 22.3793C25.6164 22.8542 41.1732 32.8844 43.872 42.644C44.5709 45.1771 44.5911 48.3595 43.0543 52.3856Z" fill="#FFB703"/>
<path d="M34.2548 40.825C33.7613 45.9555 30.8088 50.9397 27.5321 53.5912C26.7144 53.014 25.8383 52.5531 24.9058 52.2304C24.4366 52.0701 24.2009 52.028 24.1324 52.018C22.5152 51.7574 20.6603 52.509 18.9001 53.9319C15.6233 56.5833 12.6728 61.5695 12.1794 66.6981C12.1129 67.3815 12.0928 68.0689 12.119 68.7543C12.1955 70.6943 12.6466 72.1212 13.0857 73.488C14.9647 79.3039 18.6141 83.1117 20.9967 85.1699C21.0893 85.2521 21.1819 85.3283 21.2706 85.4024C21.2847 85.4164 21.3008 85.4285 21.3149 85.4405C21.3088 85.4365 21.2907 85.4245 21.2625 85.4064C20.2233 84.737 4.96727 74.8147 2.29873 65.1609C1.59786 62.6297 1.57772 59.4472 3.11641 55.4209C4.51815 51.7494 7.21691 47.3764 11.8793 42.1557C14.3585 39.378 17.3936 36.3619 21.0853 33.0851C21.1618 33.015 21.2404 32.9469 21.3189 32.8767C23.8807 34.0411 29.2359 36.6605 34.2548 40.825Z" fill="#243455"/>
<path d="M44.9563 65.2123C45.2642 62.7967 45.3125 60.6666 44.9563 58.3314C44.6203 56.1269 43.9723 54.067 43.0969 52.1519C41.6963 55.8335 38.9998 60.2184 34.3432 65.4535C34.484 66.0865 34.5987 66.7175 34.6853 67.3385C34.8583 68.5925 35.0817 70.9718 34.5585 74.4686C32.5562 87.8787 21.114 107.555 21.114 107.782C24.8549 103.757 30.25 97.5188 34.9952 90.0852C39.7383 82.6537 43.8294 74.0244 44.9563 65.2123Z" fill="#243455"/>
<path d="M43.0677 52.3788C41.6806 56.0513 39.01 60.4254 34.3983 65.6475C31.8911 68.4841 28.8119 71.5712 25.0551 74.929C30.4541 68.9592 33.5074 63.2459 35.2333 59.3409C37.5512 54.0927 39.2312 50.2879 38.9542 44.9896C38.5516 37.3319 34.3285 31.8231 32.5169 29.4617C29.8841 26.0317 27.074 23.7565 25.0791 22.3652C25.8105 22.8403 41.2043 32.8736 43.8749 42.6362C44.5685 45.1681 44.5884 48.3514 43.0677 52.3788Z" fill="#FB8500"/>
<path d="M21.1138 85.4235C21.0999 85.4274 21.0839 85.4334 21.07 85.4374C21.066 85.4394 21.066 85.4414 21.062 85.4414C20.0335 84.7745 4.935 74.8893 2.294 65.2716C1.60036 62.7498 1.58043 59.5792 3.10324 55.568C4.49051 51.9102 7.16141 47.5536 11.7757 42.3524C14.2293 39.5851 17.2331 36.5801 20.8866 33.3157C15.6305 39.1658 12.6407 44.7503 10.9405 48.5838C8.62043 53.811 6.94016 57.6006 7.21921 62.8756C7.62183 70.5047 11.8454 75.9894 13.6553 78.3414C16.1607 81.5959 18.8296 83.8062 20.8009 85.2058C20.9065 85.2797 21.0122 85.3516 21.1138 85.4235Z" fill="#132F45"/>
</svg>
